<svg width="27" height="27" viewBox="0 0 27 27" fill="none" xmlns="http://www.w3.org/2000/svg">
<path fill-rule="evenodd" clip-rule="evenodd" d="M13.784 2.62201C10.8477 2.62201 10.4802 2.63498 9.32666 2.68687C8.17639 2.73985 7.39044 2.92255 6.70287 3.18958C5.98124 3.46076 5.32747 3.88615 4.7872 4.43606C4.23731 4.97636 3.81193 5.63012 3.54071 6.35174C3.27369 7.03931 3.09098 7.82525 3.03801 8.97552C2.98504 10.129 2.97314 10.4966 2.97314 13.4328C2.97314 16.369 2.98504 16.7366 3.03801 17.8901C3.09098 19.0404 3.27369 19.8263 3.54071 20.5139C3.81196 21.2355 4.23734 21.8893 4.7872 22.4296C5.32752 22.9794 5.98127 23.4048 6.70287 23.6761C7.39044 23.9431 8.17639 24.1258 9.32666 24.1788C10.4802 24.2307 10.8477 24.2436 13.784 24.2436C16.7202 24.2436 17.0877 24.2307 18.2413 24.1788C19.3915 24.1258 20.1775 23.9431 20.865 23.6761C21.5867 23.4049 22.2404 22.9795 22.7807 22.4296C23.3306 21.8893 23.756 21.2355 24.0272 20.5139C24.2942 19.8263 24.4769 19.0404 24.5299 17.8901C24.5818 16.7366 24.5948 16.369 24.5948 13.4328C24.5948 10.4966 24.5818 10.129 24.5299 8.97552C24.4769 7.82525 24.2942 7.03931 24.0272 6.35174C23.756 5.63012 23.3306 4.97636 22.7807 4.43606C22.2404 3.88615 21.5867 3.46076 20.865 3.18958C20.1775 2.92255 19.3915 2.73985 18.2413 2.68687C17.0877 2.63498 16.7202 2.62201 13.784 2.62201ZM13.784 4.57012C16.6704 4.57012 17.0121 4.58093 18.1515 4.63282C19.2067 4.68147 19.7786 4.8566 20.1602 5.00471C20.664 5.20147 21.025 5.43606 21.4034 5.81336C21.7818 6.19174 22.0153 6.55282 22.2121 7.0566C22.3591 7.43823 22.5364 8.01012 22.584 9.06417C22.6358 10.2047 22.6467 10.5453 22.6467 13.4328C22.6467 16.3193 22.6358 16.6609 22.584 17.8004C22.5353 18.8555 22.3591 19.4274 22.2121 19.809C22.0387 20.2786 21.7624 20.7035 21.4034 21.0523C21.025 21.4307 20.664 21.6642 20.1602 21.8609C19.7786 22.008 19.2067 22.1853 18.1526 22.2328C17.0131 22.2847 16.6715 22.2955 13.784 22.2955C10.8975 22.2955 10.5548 22.2847 9.41639 22.2328C8.36125 22.1842 7.78936 22.008 7.40774 21.8609C6.9381 21.6877 6.51327 21.4114 6.1645 21.0523C5.80542 20.7035 5.5291 20.2787 5.35585 19.809C5.20774 19.4274 5.03152 18.8555 4.98396 17.8015C4.93206 16.6609 4.92125 16.3204 4.92125 13.4328C4.92125 10.5463 4.93206 10.2047 4.98396 9.06525C5.0326 8.01012 5.20774 7.43823 5.35585 7.0566C5.5526 6.55282 5.7872 6.19174 6.1645 5.81336C6.54287 5.43498 6.90396 5.20147 7.40774 5.00471C7.78936 4.8566 8.36125 4.68039 9.41531 4.63282C10.5558 4.58093 10.8964 4.57012 13.784 4.57012ZM13.784 17.0361C12.8283 17.0361 11.9118 16.6564 11.2361 15.9807C10.5603 15.305 10.1807 14.3885 10.1807 13.4328C10.1807 12.4772 10.5603 11.5607 11.2361 10.8849C11.9118 10.2092 12.8283 9.82958 13.784 9.82958C14.7396 9.82958 15.6561 10.2092 16.3318 10.8849C17.0076 11.5607 17.3872 12.4772 17.3872 13.4328C17.3872 14.3885 17.0076 15.305 16.3318 15.9807C15.6561 16.6564 14.7396 17.0361 13.784 17.0361V17.0361ZM13.784 7.88147C13.0549 7.88147 12.3331 8.02506 11.6595 8.30404C10.986 8.58302 10.374 8.99193 9.85856 9.50742C9.34307 10.0229 8.93416 10.6349 8.65518 11.3084C8.37619 11.9819 8.2326 12.7038 8.2326 13.4328C8.2326 14.1618 8.37619 14.8837 8.65518 15.5572C8.93416 16.2308 9.34307 16.8427 9.85856 17.3582C10.374 17.8737 10.986 18.2826 11.6595 18.5616C12.3331 18.8406 13.0549 18.9842 13.784 18.9842C15.2563 18.9842 16.6683 18.3993 17.7094 17.3582C18.7504 16.3171 19.3353 14.9051 19.3353 13.4328C19.3353 11.9605 18.7504 10.5485 17.7094 9.50742C16.6683 8.46634 15.2563 7.88147 13.784 7.88147V7.88147ZM20.8521 7.66201C20.8521 7.83237 20.8185 8.00107 20.7533 8.15846C20.6881 8.31586 20.5926 8.45887 20.4721 8.57934C20.3516 8.6998 20.2086 8.79536 20.0512 8.86056C19.8938 8.92575 19.7251 8.95931 19.5548 8.95931C19.3844 8.95931 19.2157 8.92575 19.0583 8.86056C18.9009 8.79536 18.7579 8.6998 18.6374 8.57934C18.517 8.45887 18.4214 8.31586 18.3562 8.15846C18.291 8.00107 18.2575 7.83237 18.2575 7.66201C18.2575 7.31795 18.3941 6.98797 18.6374 6.74468C18.8807 6.50139 19.2107 6.36471 19.5548 6.36471C19.8988 6.36471 20.2288 6.50139 20.4721 6.74468C20.7154 6.98797 20.8521 7.31795 20.8521 7.66201" fill="white"/>
</svg>
