<svg width="28" height="29" viewBox="0 0 28 29" fill="none" xmlns="http://www.w3.org/2000/svg">
<path d="M22.6498 4.60486H5.67018C4.85818 4.60486 4.19922 5.24832 4.19922 6.04067V23.0936C4.19922 23.8871 4.85818 24.5313 5.67018 24.5313H22.6498C23.4623 24.5313 24.1257 23.8871 24.1257 23.0936V6.04067C24.1257 5.24832 23.4623 4.60486 22.6498 4.60486ZM10.1091 21.585H7.15221V12.0759H10.1091V21.585ZM8.63065 10.7757C8.40558 10.7757 8.18273 10.7314 7.97481 10.6452C7.76689 10.559 7.57799 10.4327 7.41889 10.2735C7.2598 10.1144 7.13364 9.92537 7.04761 9.7174C6.96158 9.50942 6.91738 9.28654 6.91752 9.06147C6.91752 8.60716 7.098 8.17146 7.41925 7.85021C7.74049 7.52896 8.1762 7.34849 8.63051 7.34849C9.08482 7.34849 9.52053 7.52896 9.84177 7.85021C10.163 8.17146 10.3435 8.60716 10.3435 9.06147C10.3435 9.51587 10.1631 9.95169 9.8419 10.2731C9.52072 10.5946 9.08505 10.7753 8.63065 10.7757V10.7757ZM21.1782 21.585H18.2261V16.9609C18.2261 15.8578 18.2045 14.4394 16.6898 14.4394C15.1516 14.4394 14.9172 15.6408 14.9172 16.881V21.5853H11.9628V12.0759H14.7982V13.3744H14.8386C15.2332 12.6272 16.1975 11.8387 17.6355 11.8387C20.6261 11.8387 21.1785 13.8076 21.1785 16.369V21.585H21.1782Z" fill="white"/>
</svg>
