<svg width="33" height="33" viewBox="0 0 33 33" fill="none" xmlns="http://www.w3.org/2000/svg">
<path d="M18.5582 10.0287L23.3355 5.1912L21.5118 1.49792H11.6649L9.84069 5.1912L14.6185 10.0287C9.77319 10.9649 6.09766 15.2781 6.09766 20.4492C6.09766 26.3027 10.804 31.0638 16.5881 31.0638C22.3722 31.0638 27.0786 26.3027 27.0786 20.4492C27.0786 15.2781 23.403 10.9644 18.5582 10.0287ZM17.2686 7.74372H15.8997L15.1842 5.57457H17.9836L17.2686 7.74372ZM20.919 2.45192L21.9903 4.62107H19.049L18.6957 2.45192H20.919ZM18.9884 5.57457H21.6168L19.4733 7.74372H18.2734L18.9884 5.57457ZM15.4459 2.45192H17.7294L18.0827 4.62107H15.0867L15.4459 2.45192ZM12.2572 2.45192H14.4796L14.1204 4.62107H11.1859L12.2572 2.45192ZM11.558 5.57457H14.18L14.895 7.74372H13.6941L11.558 5.57457ZM16.5881 30.1098C11.3293 30.1098 7.05116 25.7759 7.05116 20.4492C7.05116 15.1224 11.3298 10.788 16.5881 10.788C21.8464 10.788 26.1246 15.1219 26.1246 20.4492C26.1246 25.7764 21.8469 30.1098 16.5881 30.1098Z" fill="black" fill-opacity="0.85"/>
<path d="M16.5881 11.8992C11.9281 11.8992 8.13623 15.7348 8.13623 20.4491C8.13623 25.1639 11.9281 28.9996 16.5881 28.9996C21.2482 28.9996 25.04 25.1644 25.04 20.4491C25.04 15.7348 21.2482 11.8992 16.5881 11.8992ZM16.5881 28.0456C12.4533 28.0456 9.08973 24.6376 9.08973 20.4491C9.08973 16.2606 12.4538 12.8527 16.5881 12.8527C20.7224 12.8527 24.086 16.2606 24.086 20.4491C24.086 24.6376 20.7229 28.0456 16.5881 28.0456Z" fill="black" fill-opacity="0.85"/>
</svg>
