<svg width="33" height="33" viewBox="0 0 33 33" fill="none" xmlns="http://www.w3.org/2000/svg">
<path d="M12.2423 25.6144C13.9771 25.6253 15.6968 25.2917 17.3016 24.6328C18.9065 23.974 20.3645 23.003 21.5912 21.7763C22.8179 20.5496 23.7889 19.0915 24.4477 17.4867C25.1066 15.8818 25.4402 14.1622 25.4293 12.4274V11.8214C26.3286 11.1626 27.1069 10.3529 27.7299 9.42844C26.8831 9.79878 25.9871 10.0444 25.0699 10.1576C26.0424 9.57816 26.772 8.66604 27.1239 7.59006C26.2176 8.13381 25.2237 8.51606 24.1866 8.71979C23.4882 7.97557 22.5639 7.48228 21.5569 7.31624C20.5498 7.1502 19.5161 7.32067 18.6157 7.80127C17.7153 8.28188 16.9984 9.04582 16.5759 9.9749C16.1534 10.904 16.0489 11.9464 16.2785 12.9409C14.436 12.8504 12.6333 12.3729 10.9876 11.5395C9.34196 10.7061 7.89029 9.53533 6.72715 8.10357C6.14063 9.12154 5.96286 10.3243 6.22982 11.4684C6.49678 12.6126 7.18852 13.6125 8.16498 14.2657C7.44464 14.238 6.74096 14.0409 6.11093 13.6906V13.742C6.10453 14.8058 6.46291 15.8397 7.12636 16.6713C7.7898 17.5029 8.71822 18.0821 9.75688 18.3122C9.08688 18.4924 8.38507 18.5205 7.70282 18.3944C8.00352 19.3016 8.57752 20.0937 9.34611 20.6618C10.1147 21.23 11.0402 21.5465 11.9958 21.5679C10.362 22.883 8.33146 23.6069 6.23417 23.622C5.86645 23.6113 5.49959 23.5805 5.13525 23.5295C7.25807 24.882 9.72525 25.5951 12.2423 25.5836" fill="white"/>
</svg>
